<svg width="44" height="44" viewBox="0 0 44 44" fill="none" xmlns="http://www.w3.org/2000/svg">
<rect width="44" height="44" rx="22" fill="#4876C0"/>
<path d="M32 28.6867C32 29.0545 31.9199 29.4326 31.7496 29.8005C31.5794 30.1683 31.359 30.5158 31.0686 30.8427C30.5779 31.3945 30.0371 31.7931 29.4261 32.0485C28.8252 32.304 28.1743 32.4368 27.4732 32.4368C26.4517 32.4368 25.36 32.1916 24.2083 31.6909C23.0566 31.1902 21.9049 30.5158 20.7631 29.6676C19.5995 28.7992 18.5014 27.8428 17.4782 26.8065C16.4655 25.7662 15.5314 24.6492 14.684 23.4651C13.8628 22.3002 13.2018 21.1353 12.7211 19.9806C12.2404 18.8157 12 17.7019 12 16.6392C12 15.9443 12.1202 15.2801 12.3605 14.667C12.6009 14.0437 12.9815 13.4715 13.5123 12.9605C14.1532 12.3168 14.8543 12 15.5954 12C15.8758 12 16.1562 12.0613 16.4066 12.1839C16.667 12.3066 16.8973 12.4905 17.0776 12.7562L19.4011 16.0976C19.5814 16.353 19.7116 16.5881 19.8017 16.8129C19.8918 17.0275 19.9419 17.242 19.9419 17.4362C19.9419 17.6814 19.8718 17.9267 19.7316 18.1617C19.6014 18.3967 19.4111 18.642 19.1708 18.8872L18.4096 19.6945C18.2994 19.8069 18.2494 19.9397 18.2494 20.1032C18.2494 20.1849 18.2594 20.2565 18.2794 20.3382C18.3095 20.42 18.3395 20.4813 18.3595 20.5426C18.5398 20.8798 18.8503 21.3192 19.2909 21.8505C19.7416 22.3819 20.2223 22.9235 20.7431 23.4651C21.2839 24.0066 21.8047 24.5073 22.3355 24.9672C22.8563 25.4168 23.2869 25.7233 23.6274 25.9073C23.6775 25.9277 23.7376 25.9583 23.8077 25.989C23.8878 26.0197 23.968 26.0299 24.0581 26.0299C24.2283 26.0299 24.3585 25.9686 24.4687 25.8562L25.2298 25.0898C25.4802 24.8343 25.7206 24.6402 25.9509 24.5175C26.1813 24.3745 26.4116 24.303 26.662 24.303C26.8523 24.303 27.0526 24.3438 27.2729 24.4358C27.4932 24.5278 27.7236 24.6606 27.974 24.8343L31.2889 27.2356C31.5493 27.4196 31.7296 27.6342 31.8398 27.8896C31.9399 28.1451 32 28.4005 32 28.6867Z" fill="white"/>
</svg>
