<svg width="72" height="72" viewBox="0 0 72 72" fill="none" xmlns="http://www.w3.org/2000/svg">
<path d="M0 16.6154C0 7.43896 7.43896 0 16.6154 0H39.2727C46.4572 0 50.0495 0 53.0096 0.733041C62.0103 2.96202 69.038 9.9897 71.267 18.9904C72 21.9505 72 25.5428 72 32.7273V55.3846C72 64.561 64.561 72 55.3846 72C24.7965 72 0 47.2035 0 16.6154Z" fill="#A2562C"/>
<path d="M0 16.6154C0 7.43896 7.43896 0 16.6154 0H39.2727C46.4572 0 50.0495 0 53.0096 0.733041C62.0103 2.96202 69.038 9.9897 71.267 18.9904C72 21.9505 72 25.5428 72 32.7273V55.3846C72 64.561 64.561 72 55.3846 72C24.7965 72 0 47.2035 0 16.6154Z" fill="url(#paint0_linear_1_232)"/>
<path d="M32.7328 23.7055C32.7333 21.9424 32.7371 20.1798 32.7305 18.4167C32.73 18.2419 32.7909 18.146 32.9345 18.0681C33.2052 17.9207 33.4698 17.7634 33.774 17.5886V20.6924C34.5389 20.2417 35.2693 19.8113 35.9996 19.3805C37.3682 18.5726 38.7368 17.7648 40.104 16.9546C40.2018 16.897 40.2925 16.8842 40.3894 16.9409C41.2775 17.4615 42.1633 17.9854 43.0529 18.5032C43.8763 18.9822 44.7049 19.4518 45.5288 19.9294C46.8049 20.6697 48.0776 21.4152 49.354 22.1545C50.4071 22.7644 51.4644 23.3668 52.5174 23.9757C53.2723 24.4122 54.0235 24.8558 54.7775 25.2947C55.6151 25.7818 56.4546 26.2665 57.2926 26.7531C57.7726 27.0318 58.2479 27.3186 58.734 27.586C58.8743 27.663 58.9083 27.7532 58.9074 27.8982C58.9022 28.7637 58.9031 29.6297 58.9031 30.4956C58.9031 33.1795 58.9012 35.8633 58.9078 38.5471C58.9083 38.7559 58.8634 38.8173 58.6423 38.8173C46.4888 38.8112 34.3348 38.8112 22.1813 38.8173C21.9649 38.8173 21.8926 38.7625 21.9139 38.5481C21.9318 38.369 21.9332 38.1848 21.9139 38.0062C21.8907 37.7983 21.9758 37.7629 22.1633 37.7657C22.8006 37.7757 23.4384 37.7671 24.0757 37.7657C24.4205 37.7653 24.7649 37.7643 25.1098 37.7638C25.1646 37.7662 25.2199 37.77 25.2747 37.77C35.42 37.7705 45.5652 37.7709 55.7105 37.7714C56.0549 37.8588 56.3988 37.8579 56.7432 37.7714C57.0503 37.7714 57.3569 37.7662 57.6635 37.7752C57.8052 37.7794 57.868 37.7568 57.8676 37.5886C57.8619 34.5438 57.8624 31.499 57.8671 28.4543C57.8671 28.3258 57.8232 28.2459 57.7211 28.1874C57.4651 28.039 57.2076 27.8931 56.9511 27.7452C55.9921 27.1915 55.0326 26.6378 54.0745 26.0827C52.9289 25.419 51.7842 24.7533 50.639 24.0882C49.8222 23.6134 49.0063 23.1372 48.1891 22.6638C47.1469 22.0601 46.1038 21.4587 45.0616 20.8559C44.3605 20.45 43.6609 20.0428 42.9598 19.637C42.0854 19.1306 41.21 18.6265 40.3374 18.1172C40.2741 18.0804 40.2344 18.0747 40.1702 18.113C39.368 18.5934 38.5658 19.0725 37.7603 19.5472C36.4631 20.3121 35.1644 21.0751 33.8629 21.8328C33.7736 21.8848 33.7721 21.9448 33.7726 22.0223C33.775 22.3922 33.7769 22.7616 33.7792 23.1315C33.5029 23.4017 33.1353 23.5265 32.8169 23.7301C32.8008 23.7405 32.7616 23.7149 32.7328 23.7064V23.7055Z" fill="white"/>
<path d="M32.7348 23.7056C32.7631 23.7141 32.8023 23.7396 32.8189 23.7292C33.1368 23.5256 33.5048 23.4009 33.7812 23.1302C33.8643 23.1359 33.9286 23.0952 33.9976 23.0532C34.3235 22.8538 34.6509 22.6573 34.9812 22.466C36.5704 21.5447 38.1643 20.6315 39.7474 19.6999C40.0096 19.5454 40.2128 19.5393 40.4764 19.69C41.6777 20.3764 42.89 21.0435 44.097 21.72C45.7278 22.6337 47.3567 23.5511 48.9875 24.4643C50.0651 25.0676 51.146 25.6643 52.2236 26.2671C53.5809 27.0258 54.9282 27.8024 56.2983 28.538C56.6582 28.7312 56.757 28.9476 56.7541 29.3444C56.7343 32.153 56.7447 34.9615 56.7452 37.7701C56.4008 37.857 56.0569 37.8575 55.7125 37.7701C55.7125 35.0579 55.7125 32.3453 55.7158 29.6331C55.7158 29.4961 55.6936 29.404 55.5556 29.3331C55.2438 29.1739 54.9448 28.9901 54.6386 28.8196C53.7514 28.3249 52.8619 27.8336 51.9756 27.3371C51.1985 26.9015 50.4289 26.4527 49.648 26.0242C49.1075 25.728 48.5855 25.3988 48.0257 25.138C47.6992 24.9079 47.3463 24.7251 46.9901 24.5475C46.3708 24.1983 45.7514 23.8487 45.1316 23.5001C43.6397 22.6606 42.1483 21.8202 40.6554 20.9826C40.1263 20.6859 40.1239 20.6892 39.5958 20.9826C39.5755 20.9939 39.5599 21.0133 39.5396 21.0251C38.3524 21.721 37.1675 22.4201 35.9775 23.1108C34.7964 23.7963 33.6083 24.4695 32.4268 25.1545C31.0799 25.9359 29.7387 26.7263 28.3928 27.5091C27.3667 28.1057 26.3368 28.6963 25.3102 29.292C25.1883 29.3629 25.1047 29.4441 25.1052 29.6217C25.1141 32.3353 25.1118 35.0494 25.1123 37.763C24.7674 37.7635 24.423 37.7644 24.0781 37.7649C24.08 35.2152 24.0819 32.666 24.0833 30.1164C24.0833 29.7389 24.0833 29.361 24.0833 28.9835C24.0833 28.8673 24.1121 28.786 24.2302 28.7185C25.1869 28.1705 26.1369 27.6111 27.0908 27.0574C27.8344 26.6256 28.5817 26.2 29.3244 25.7663C30.3179 25.1866 31.309 24.6032 32.3002 24.0198C32.4546 23.9286 32.6658 23.9135 32.7367 23.7056H32.7348Z" fill="white"/>
<path d="M31.7192 21.9684C31.7192 22.3104 31.7135 22.6619 31.722 23.0125C31.7249 23.1325 31.6356 23.1485 31.569 23.1882C30.8646 23.6091 30.1592 24.0286 29.4525 24.4458C28.0504 25.273 26.6477 26.0993 25.2446 26.9246C24.5445 27.3365 23.8439 27.7471 23.14 28.1529C22.9907 28.2389 22.9543 28.3522 22.9548 28.5181C22.9595 31.1702 22.9548 33.822 22.9633 36.4741C22.9643 36.6981 22.8986 36.7547 22.6898 36.7368C22.4786 36.7188 22.2651 36.7288 22.0525 36.7354C21.9504 36.7382 21.9065 36.7047 21.9174 36.6017C21.9216 36.5629 21.9178 36.5233 21.9178 36.4836C21.9178 33.6193 21.9178 30.7545 21.9141 27.8902C21.9141 27.7513 21.9481 27.6729 22.0766 27.5983C23.1296 26.9865 24.1774 26.3648 25.2253 25.7445C26.6269 24.9144 28.0263 24.082 29.4279 23.2525C30.1399 22.8311 30.8547 22.4134 31.5685 21.9953C31.6067 21.9731 31.6455 21.9363 31.7187 21.9684H31.7192Z" fill="white"/>
<path d="M48.0247 25.138C48.0247 28.9155 48.0223 32.6934 48.0289 36.4709C48.0289 36.6802 47.9855 36.7595 47.7653 36.7373C47.5551 36.7161 47.3406 36.727 47.1285 36.735C47.0142 36.7392 46.9679 36.701 46.9835 36.5881C46.9868 36.5649 46.9839 36.5408 46.9839 36.5172C46.9839 32.5507 46.9839 28.5843 46.9839 24.6174C46.9839 24.5937 46.9872 24.5706 46.9891 24.547C47.3449 24.7251 47.6982 24.9074 48.0247 25.1375V25.138Z" fill="white"/>
<path d="M38.2694 23.7099V23.9419C38.2694 28.1115 38.268 32.2811 38.2736 36.4512C38.2736 36.6585 38.2358 36.7488 38.0086 36.7223C37.8144 36.7001 37.6156 36.7129 37.419 36.7195C37.317 36.7228 37.2726 36.6888 37.2834 36.5858C37.2868 36.5546 37.2834 36.523 37.2834 36.4913C37.2839 32.5027 37.2858 28.514 37.2811 24.5253C37.2811 24.3562 37.3222 24.2428 37.4705 24.162C37.7299 24.0203 37.985 23.8715 38.2689 23.7099H38.2694Z" fill="white"/>
<path d="M42.412 23.738C42.7148 23.9199 42.9694 24.0872 43.2382 24.2275C43.3639 24.2931 43.4031 24.3673 43.4017 24.5015C43.3955 25.0207 43.3988 25.5399 43.3988 26.059C43.3988 29.5285 43.397 32.9985 43.404 36.4679C43.404 36.6777 43.3535 36.741 43.1461 36.7207C42.9132 36.6975 42.5976 36.7963 42.463 36.6777C42.308 36.5411 42.4148 36.2199 42.4143 35.9794C42.411 31.9747 42.412 27.9705 42.412 23.9657C42.412 23.9043 42.412 23.8429 42.412 23.738Z" fill="white"/>
<path d="M33.775 31.5339C33.775 33.1935 33.7726 34.8531 33.7783 36.5132C33.7788 36.6795 33.7537 36.7551 33.5629 36.7376C33.3446 36.7173 33.1221 36.7239 32.9024 36.7362C32.7631 36.7437 32.7182 36.6923 32.7342 36.5628C32.739 36.5241 32.7347 36.4844 32.7347 36.4447C32.7347 33.3532 32.7361 30.2621 32.7305 27.1706C32.7305 26.9963 32.7711 26.8834 32.9289 26.8007C33.1434 26.6892 33.3475 26.5579 33.5586 26.4393C33.6177 26.4062 33.6753 26.3268 33.7433 26.3618C33.8156 26.3986 33.7722 26.4898 33.7722 26.555C33.7745 28.2146 33.774 29.8743 33.774 31.5343L33.775 31.5339Z" fill="white"/>
<path d="M29.2702 28.9687V29.2077C29.2702 31.6298 29.2679 34.0515 29.2745 36.4736C29.2749 36.6654 29.2357 36.74 29.0326 36.7216C28.8219 36.7027 28.6083 36.7126 28.3962 36.7192C28.2942 36.7226 28.2503 36.6895 28.2611 36.586C28.2654 36.5473 28.2616 36.5076 28.2616 36.4679C28.2616 34.2348 28.2625 32.0016 28.2578 29.7685C28.2578 29.6272 28.2918 29.5328 28.417 29.4628C28.6901 29.3102 28.9584 29.1501 29.2707 28.9687H29.2702Z" fill="white"/>
<path d="M51.5197 28.847C51.8414 29.0383 52.1277 29.2108 52.4168 29.379C52.5151 29.4361 52.4872 29.5264 52.491 29.6086C52.5368 30.6299 52.5174 31.6523 52.541 32.6736C52.5703 33.9468 52.5779 35.22 52.5888 36.4936C52.5902 36.6873 52.5311 36.7346 52.3525 36.7204C52.165 36.7058 51.9746 36.7072 51.7866 36.7204C51.625 36.7313 51.5749 36.6826 51.5759 36.5135C51.5811 35.6409 51.5863 34.7679 51.5641 33.8953C51.5249 32.3467 51.5239 30.7981 51.5197 29.2495C51.5197 29.1319 51.5197 29.0143 51.5197 28.847Z" fill="white"/>
<defs>
<linearGradient id="paint0_linear_1_232" x1="0" y1="36" x2="72" y2="36" gradientUnits="userSpaceOnUse">
<stop stop-color="#4877C0"/>
<stop offset="1" stop-color="#2E46A9"/>
</linearGradient>
</defs>
</svg>
