<svg width="25" height="25" viewBox="0 0 25 25" fill="none" xmlns="http://www.w3.org/2000/svg">
<rect width="25" height="25" rx="12.5" fill="#4876C0"/>
<path d="M18.18 16.2993C18.18 16.5083 18.1345 16.7231 18.0378 16.9321C17.941 17.1412 17.8159 17.3386 17.6508 17.5243C17.372 17.8379 17.0647 18.0643 16.7176 18.2094C16.3762 18.3546 16.0063 18.4301 15.608 18.4301C15.0276 18.4301 14.4073 18.2907 13.7529 18.0062C13.0986 17.7217 12.4442 17.3386 11.7955 16.8567C11.1343 16.3632 10.5104 15.8198 9.92903 15.231C9.3536 14.64 8.82288 14.0053 8.34142 13.3325C7.87481 12.6706 7.49925 12.0087 7.22611 11.3527C6.95297 10.6908 6.81641 10.0579 6.81641 9.45412C6.81641 9.05932 6.88469 8.68194 7.02126 8.33358C7.15783 7.97942 7.37406 7.65429 7.67565 7.36399C8.03983 6.99822 8.43816 6.81824 8.85924 6.81824C9.01857 6.81824 9.1779 6.85307 9.32016 6.92274C9.46811 6.99241 9.59899 7.09692 9.70142 7.24787L11.0216 9.14641C11.124 9.29156 11.198 9.42509 11.2492 9.55282C11.3004 9.67475 11.3289 9.79667 11.3289 9.90698C11.3289 10.0463 11.289 10.1857 11.2094 10.3192C11.1354 10.4527 11.0273 10.5921 10.8907 10.7314L10.4582 11.1901C10.3956 11.254 10.3672 11.3294 10.3672 11.4223C10.3672 11.4688 10.3729 11.5094 10.3843 11.5559C10.4013 11.6023 10.4184 11.6371 10.4298 11.672C10.5322 11.8636 10.7086 12.1132 10.959 12.4151C11.215 12.717 11.4882 13.0248 11.7841 13.3325C12.0914 13.6402 12.3873 13.9247 12.6889 14.1859C12.9847 14.4414 13.2294 14.6156 13.4229 14.7201C13.4514 14.7317 13.4855 14.7491 13.5253 14.7665C13.5709 14.7839 13.6164 14.7898 13.6676 14.7898C13.7643 14.7898 13.8383 14.7549 13.9009 14.6911L14.3334 14.2556C14.4756 14.1105 14.6122 14.0002 14.7431 13.9305C14.8739 13.8492 15.0048 13.8086 15.1471 13.8086C15.2552 13.8086 15.369 13.8318 15.4942 13.884C15.6194 13.9363 15.7503 14.0118 15.8925 14.1105L17.776 15.4749C17.924 15.5794 18.0264 15.7013 18.089 15.8464C18.1459 15.9916 18.18 16.1367 18.18 16.2993Z" fill="white"/>
</svg>
