<svg width="44" height="44" viewBox="0 0 44 44" fill="none" xmlns="http://www.w3.org/2000/svg">
<rect width="44" height="44" rx="22" fill="#4876C0"/>
<path d="M14.2135 33H29.7865C30.3941 33 30.9149 32.7756 31.349 32.3267C31.783 31.8778 32 31.3302 32 30.6838V14.6054C32 13.977 31.783 13.4383 31.349 12.9895C30.9149 12.5406 30.3941 12.3162 29.7865 12.3162H27.5469V10H25.3333V12.3162H18.6667V10H16.4531V12.3162H14.2135C13.6059 12.3162 13.0851 12.5406 12.651 12.9895C12.217 13.4383 12 13.977 12 14.6054V30.6838C12 31.3302 12.217 31.8778 12.651 32.3267C13.0851 32.7756 13.6059 33 14.2135 33ZM20.8802 28.8794L16.7656 24.5972L18.3281 22.9813L20.8802 25.6206L25.6719 20.692L27.2344 22.308L20.8802 28.8794ZM14.2135 15.7635H29.7865V18.0527H14.2135V15.7635Z" fill="white"/>
</svg>
